<svg xmlns="http://www.w3.org/2000/svg" xml:space="preserve" width="30" height="30" viewBox="0 0 7.938 7.938"><path d="M5.125 6.356c-1.587.122-2.951-.84-3.283-2.156-.323-1.28.66-2.601 2.117-2.609 1.098-.005 2.012.713 2.189 1.656a1.284 1.284 0 0 1-1.15 1.52c-.796.076-1.467-.484-1.467-1.186 0-.22.197-.398.441-.398s.441.178.441.398.198.398.442.398c.243 0 .441-.178.441-.398 0-.702-.672-1.262-1.467-1.187-.8.076-1.284.806-1.15 1.52.177.944 1.09 1.662 2.189 1.656 1.456-.007 2.44-1.328 2.117-2.609C6.589 1.39 4.717.322 2.752 1.007c-1.004.35-1.72 1.187-1.842 2.15-.26 2.048 1.396 3.801 3.56 3.989.221.019.385.193.385.392 0 .237-.23.421-.492.397C1.935 7.715.035 5.883 0 3.644-.026 1.95 1.286.42 3.125.079c2.377-.443 4.489 1.03 4.784 3.023.236 1.59-1.011 3.118-2.784 3.254" style="fill:#ec4899;fill-opacity:1;fill-rule:evenodd;stroke:none;stroke-width:.418343"/></svg>